<?xml version="1.0" standalone="no"?>
<!DOCTYPE svg PUBLIC "-//W3C//DTD SVG 1.1//EN" "http://www.w3.org/Graphics/SVG/1.1/DTD/svg11.dtd" >
<svg xmlns="http://www.w3.org/2000/svg">
<metadata>Generated by IcoMoon</metadata>
<defs>
<font id="custom" horiz-adv-x="1024">
<font-face units-per-em="1024" ascent="960" descent="-64" />
<missing-glyph horiz-adv-x="1024" />
<glyph unicode="&#x20;" horiz-adv-x="512" d="" />
<glyph unicode="&#xe900;" d="M476.16 517.973v-124.587h-252.587c-3.413 0-5.12 0-6.827 0-29.013-1.707-46.080-34.133-51.2-42.667l-1.707-6.827v-138.24h59.733v122.88h252.587v-114.347h59.733v114.347h252.587v-112.64h61.44v112.64c0 1.707 0 5.12 0 8.533-1.707 22.187-17.067 42.667-39.253 51.2-3.413 1.707-6.827 1.707-13.653 3.413h-261.12v126.293h-59.733z" />
<glyph unicode="&#xe901;" d="M563.2 488.96h-110.933c-37.547 0-68.267 30.72-68.267 68.267v112.64c0 37.547 30.72 68.267 68.267 68.267h110.933c37.547 0 68.267-30.72 68.267-68.267v-110.933c0-39.253-30.72-69.973-68.267-69.973z" />
<glyph unicode="&#xe902;" d="M875.52-12.8h-110.933c-37.547 0-68.267 30.72-68.267 68.267v110.933c0 37.547 30.72 68.267 68.267 68.267h110.933c37.547 0 68.267-30.72 68.267-68.267v-110.933c0-37.547-30.72-68.267-68.267-68.267z" />
<glyph unicode="&#xe903;" d="M563.2-12.8h-110.933c-37.547 0-68.267 30.72-68.267 68.267v110.933c0 37.547 30.72 68.267 68.267 68.267h110.933c37.547 0 68.267-30.72 68.267-68.267v-110.933c0-37.547-30.72-68.267-68.267-68.267z" />
<glyph unicode="&#xe904;" d="M249.173-12.8h-112.64c-37.547 0-68.267 30.72-68.267 68.267v110.933c0 37.547 30.72 68.267 68.267 68.267h110.933c37.547 0 68.267-30.72 68.267-68.267v-110.933c1.707-37.547-29.013-68.267-66.56-68.267z" />
<glyph unicode="&#xe905;" d="M776.533 912.213h34.133v-230.4h-34.133v230.4z" />
<glyph unicode="&#xe906;" d="M674.133 813.227h230.4v-34.133h-230.4v34.133z" />
<glyph unicode="&#xe907;" glyph-name="customer_role_access_add" d="M588.8 671.573c-5.12 22.187-6.827 34.133-15.36 49.493-3.413 5.12-15.36 23.893-42.667 34.133-10.24 5.12-18.773 5.12-25.6 5.12-5.12 5.12-13.653 11.947-23.893 17.067-3.413 1.707-15.36 8.533-32.427 11.947-20.48 5.12-34.133 0-54.613-3.413-13.653-3.413-34.133-5.12-54.613-15.36-13.653-5.12-42.667-22.187-59.733-54.613-8.533-18.773-8.533-44.373-6.827-97.28 0-15.36 1.707-29.013 1.707-37.547l6.827-44.373c0 0-10.24-13.653-13.653-20.48-6.827-18.773 5.12-46.080 22.187-59.733 5.12-5.12 13.653-6.827 15.36-8.533 3.413-37.547 13.653-56.32 22.187-64.853 3.413-3.413 8.533-8.533 11.947-18.773 3.413-11.947 1.707-20.48 0-30.72-10.24-56.32-10.24-61.44-17.067-71.68-3.413-5.12-10.24-11.947-22.187-15.36l-71.68-32.427-34.133-13.653c-17.067-5.12-39.253-15.36-59.733-34.133-11.947-11.947-40.96-35.84-44.373-76.8 0-6.827 0-13.653 0-18.773 141.653 0 281.6 0 423.253 0l-1.707 8.533c-1.707 5.12-1.707 8.533-3.413 15.36-1.707 13.653-3.413 25.6-1.707 40.96 1.707 27.307 3.413 59.733 18.773 97.28 5.12 13.653 11.947 22.187 13.653 29.013l-15.36 13.653-6.827 13.653-5.12 66.56c10.24 11.947 20.48 23.893 29.013 42.667 3.413 5.12 5.12 11.947 6.827 17.067l5.12 32.427c5.12 3.413 11.947 8.533 15.36 13.653 13.653 15.36 23.893 42.667 13.653 64.853-3.413 5.12-6.827 11.947-8.533 13.653 6.827 17.067 15.36 42.667 17.067 73.387 3.413 27.307 0 46.080-1.707 58.027zM564.907 577.707c-5.12-15.36-10.24-29.013-13.653-39.253 1.707-1.707 5.12-5.12 6.827-8.533 1.707-1.707 5.12-6.827 6.827-13.653 3.413-11.947 0-22.187-1.707-23.893-5.12-18.773-23.893-27.307-27.307-30.72 0-5.12-1.707-8.533-1.707-13.653-5.12-29.013-15.36-49.493-23.893-61.44-3.413-6.827-8.533-15.36-15.36-25.6v-13.653l1.707-58.027c0-3.413 1.707-6.827 1.707-11.947 3.413-10.24 8.533-17.067 13.653-20.48-1.707-5.12-5.12-6.827-5.12-11.947-23.893-52.907-25.6-109.227-18.773-155.307l-378.88-3.413c0 0 1.707 20.48 11.947 35.84 11.947 18.773 27.307 32.427 29.013 32.427 11.947 8.533 17.067 10.24 52.907 27.307 32.427 13.653 27.307 13.653 42.667 20.48 18.773 6.827 29.013 10.24 59.733 22.187 15.36 5.12 23.893 10.24 32.427 20.48 6.827 8.533 10.24 17.067 11.947 23.893l13.653 80.213c0 1.707 0 5.12 0 8.533 0 5.12-1.707 13.653-10.24 23.893-5.12 8.533-6.827 8.533-11.947 13.653-11.947 15.36-13.653 35.84-15.36 51.2-1.707 10.24-1.707 17.067-1.707 22.187-5.12 0-11.947 1.707-18.773 5.12-13.653 8.533-18.773 25.6-15.36 42.667 3.413 10.24 10.24 15.36 13.653 17.067-3.413 8.533-5.12 20.48-6.827 32.427-1.707 13.653-1.707 18.773-3.413 47.787-1.707 44.373-3.413 49.493-1.707 61.44 1.707 13.653 3.413 23.893 10.24 35.84 13.653 25.6 37.547 35.84 46.080 40.96 10.24 5.12 20.48 6.827 35.84 10.24 18.773 5.12 29.013 5.12 35.84 5.12 3.413 0 10.24 0 18.773-1.707 8.533 0 17.067 0 25.6-3.413 5.12-3.413 17.067-6.827 27.307-20.48 3.413 0 6.827-1.707 11.947-1.707 11.947-1.707 17.067-3.413 22.187-5.12 10.24-5.12 15.36-11.947 20.48-17.067 1.707-3.413 10.24-13.653 15.36-35.84 5.12-20.48 6.827-37.547 6.827-46.080 5.12-10.24 5.12-32.427-3.413-58.027zM679.253 340.48c-107.52 0-194.56-85.333-194.56-191.147s87.040-191.147 194.56-191.147 194.56 85.333 194.56 191.147c1.707 104.107-85.333 191.147-194.56 191.147zM679.253-19.627c-93.867 0-170.667 75.093-170.667 167.253s76.8 167.253 170.667 167.253 170.667-75.093 170.667-167.253c1.707-92.16-75.093-167.253-170.667-167.253zM772.004 110.924l-23.487-22.358-10.591 11.125 23.487 22.358 10.591-11.125zM687.787 253.44c-23.893 23.893-68.267 15.36-98.987-15.36-30.72-32.427-34.133-76.8-11.947-98.987 23.893-22.187 68.267-15.36 98.987 15.36s37.547 76.8 11.947 98.987zM677.547 205.653c0-3.413-3.413-8.533-8.533-13.653s-10.24-5.12-13.653-5.12-6.827-1.707-11.947 0c-1.707 0-5.12 3.413-5.12 1.707v0 0c1.707-1.707 1.707-5.12 3.413-10.24 0-5.12-1.707-10.24-1.707-11.947-5.12-10.24-13.653-13.653-15.36-13.653-6.827-3.413-13.653-1.707-15.36-1.707s-13.653 3.413-17.067 13.653c-3.413 6.827-3.413 13.653-1.707 15.36 0 3.413 3.413 13.653 11.947 18.773 0 0 10.24 5.12 22.187 3.413 1.707 0 3.413-1.707 5.12-1.707l-1.707 6.827v5.12c0 3.413 0 8.533 5.12 13.653 1.707 3.413 5.12 5.12 8.533 8.533 5.12 3.413 6.827 3.413 10.24 3.413s8.533 1.707 13.653-1.707c5.12-1.707 6.827-5.12 8.533-6.827 1.707-3.413 5.12-6.827 6.827-13.653-1.707-3.413-3.413-8.533-3.413-10.24zM773.12 52.053v0c-5.12-5.12-13.653-5.12-18.773-1.707l-97.28 102.4c-5.12 5.12-5.12 13.653 0 17.067l1.707 1.707c5.12 5.12 13.653 5.12 17.067 0l97.28-102.4c6.827-5.12 6.827-13.653 0-17.067zM791.893 96.427v0c-5.12-5.12-11.947-5.12-15.36-1.707l-32.427 32.427c-5.12 5.12-3.413 10.24 0 13.653l1.707 1.707c5.12 5.12 10.24 3.413 13.653 0l32.427-32.427c3.413-3.413 3.413-10.24 0-13.653zM720.213 883.2h25.6v-230.4h-25.6v230.4zM617.813 780.8h230.4v-25.6h-230.4v25.6z" />
<glyph unicode="&#xe908;" glyph-name="customer_tick_role_add" d="M604.16 710.827c-5.12 22.187-6.827 35.84-15.36 49.493-3.413 5.12-15.36 25.6-42.667 35.84-10.24 5.12-18.773 5.12-25.6 5.12-5.12 5.12-13.653 11.947-23.893 17.067-3.413 1.707-15.36 8.533-34.133 11.947-20.48 5.12-35.84 0-56.32-3.413-13.653-3.413-34.133-5.12-54.613-15.36-13.653-6.827-44.373-22.187-59.733-56.32-8.533-18.773-8.533-46.080-6.827-98.987 0-15.36 1.707-29.013 1.707-37.547l6.827-46.080c0 0-10.24-13.653-13.653-20.48-6.827-18.773 5.12-46.080 22.187-59.733 5.12-5.12 13.653-6.827 15.36-8.533 3.413-37.547 13.653-56.32 22.187-66.56 3.413-3.413 8.533-8.533 11.947-18.773 3.413-11.947 1.707-20.48 0-30.72-10.24-56.32-10.24-63.147-17.067-73.387-3.413-5.12-10.24-11.947-22.187-15.36l-73.387-32.427-35.84-15.36c-17.067-5.12-39.253-15.36-59.733-35.84-11.947-11.947-40.96-35.84-46.080-76.8 0-6.827 0-13.653 0-18.773 143.36 0 285.013 0 428.373 0l-1.707 8.533c-1.707 5.12-1.707 8.533-3.413 15.36-1.707 15.36-3.413 25.6-1.707 40.96 1.707 27.307 3.413 59.733 18.773 98.987 5.12 13.653 11.947 22.187 15.36 29.013l-15.36 13.653-6.827 15.36-5.12 66.56c10.24 11.947 20.48 25.6 29.013 44.373 3.413 5.12 5.12 11.947 6.827 17.067l5.12 32.427c5.12 3.413 11.947 8.533 15.36 15.36 13.653 15.36 23.893 44.373 13.653 66.56-3.413 5.12-6.827 11.947-8.533 13.653 6.827 17.067 15.36 42.667 17.067 75.093 6.827 25.6 1.707 46.080 0 58.027zM581.973 615.253c-5.12-15.36-10.24-29.013-15.36-39.253 1.707-1.707 5.12-5.12 6.827-8.533 1.707-1.707 5.12-6.827 6.827-13.653 3.413-11.947 0-22.187-1.707-25.6-5.12-18.773-25.6-27.307-27.307-30.72 0-5.12-1.707-8.533-1.707-13.653-5.12-29.013-15.36-49.493-23.893-63.147-3.413-6.827-8.533-15.36-15.36-25.6v-15.36l1.707-58.027c0-3.413 1.707-6.827 1.707-11.947 3.413-10.24 8.533-17.067 13.653-20.48-1.707-5.12-5.12-6.827-5.12-11.947-25.6-54.613-25.6-109.227-18.773-157.013l-384-3.413c0 0 1.707 20.48 11.947 35.84 11.947 18.773 27.307 32.427 29.013 34.133 11.947 8.533 17.067 10.24 54.613 27.307 34.133 15.36 27.307 15.36 42.667 20.48 18.773 6.827 29.013 10.24 59.733 22.187 15.36 5.12 25.6 10.24 34.133 20.48 6.827 8.533 10.24 17.067 11.947 23.893l15.36 81.92c0 1.707 0 5.12 0 8.533 0 5.12-1.707 13.653-10.24 25.6-5.12 8.533-6.827 8.533-11.947 15.36-11.947 15.36-15.36 35.84-15.36 51.2-1.707 8.533-1.707 15.36-1.707 20.48-5.12 0-11.947 1.707-18.773 5.12-13.653 8.533-18.773 25.6-15.36 42.667 3.413 10.24 10.24 15.36 15.36 17.067-3.413 8.533-5.12 20.48-6.827 34.133s-1.707 18.773-3.413 47.787c-1.707 46.080-3.413 49.493-1.707 63.147 1.707 15.36 3.413 25.6 10.24 35.84 13.653 25.6 37.547 35.84 46.080 40.96 10.24 5.12 20.48 6.827 35.84 10.24 17.067 5.12 27.307 5.12 35.84 5.12 3.413 0 10.24 0 18.773-1.707 8.533 0 17.067 0 25.6-3.413 5.12-3.413 17.067-6.827 27.307-20.48 3.413 0 6.827-1.707 11.947-1.707 11.947-1.707 17.067-3.413 22.187-5.12 10.24-5.12 15.36-11.947 20.48-17.067 1.707-3.413 10.24-13.653 15.36-35.84 5.12-20.48 6.827-37.547 6.827-46.080 3.413-11.947 3.413-34.133-3.413-59.733zM698.027 374.613c-109.227 0-196.267-87.040-196.267-192.853s87.040-194.56 196.267-194.56 196.267 87.040 196.267 192.853-87.040 194.56-196.267 194.56zM698.027 9.387c-95.573 0-172.373 76.8-172.373 170.667s76.8 170.667 172.373 170.667 172.373-76.8 172.373-170.667c1.707-93.867-76.8-170.667-172.373-170.667zM586.645 192.709l18.781 11.812 58.152-92.46-18.781-11.812-58.152 92.46zM647.343 97.229l-11.912 18.719 177.11 112.706 11.912-18.719-177.11-112.706zM754.347 908.8h25.6v-230.4h-25.6v230.4zM650.24 806.4h230.4v-25.6h-230.4v25.6z" />
<glyph unicode="&#xe909;" glyph-name="group_add" d="M320.853 321.707c-1.707 0-3.413 0-6.827 0-34.133-1.707-58.027-18.773-63.147-22.187-8.533-6.827-23.893-18.773-37.547-47.787-29.013-58.027-27.307-124.587-23.893-155.307 0-3.413 0-8.533 1.707-13.653 8.533-37.547 44.373-56.32 46.080-58.027 17.067-8.533 32.427-10.24 42.667-10.24h349.867c5.12 0 10.24 0 15.36 0 37.547 3.413 61.44 34.133 68.267 44.373 1.707 3.413 3.413 6.827 5.12 13.653 5.12 11.947 6.827 27.307 6.827 59.733 0 18.773-1.707 34.133-5.12 56.32-6.827 32.427-11.947 58.027-30.72 83.627-8.533 11.947-27.307 35.84-61.44 46.080-15.36 5.12-29.013 5.12-37.547 5.12-1.707-1.707-5.12-3.413-8.533-5.12-18.773-11.947-32.427-20.48-35.84-22.187-23.893-15.36-54.613-20.48-58.027-22.187-32.427-5.12-59.733 0-69.973 1.707-25.6 5.12-44.373 15.36-56.32 22.187-13.653 6.827-23.893 15.36-32.427 20.48l-8.533 3.413zM602.453 441.173c0-79.176-66.477-143.36-148.48-143.36s-148.48 64.184-148.48 143.36c0 79.176 66.477 143.36 148.48 143.36s148.48-64.184 148.48-143.36zM329.387 584.533c0-51.841-43.554-93.867-97.28-93.867s-97.28 42.026-97.28 93.867c0 51.841 43.554 93.867 97.28 93.867s97.28-42.026 97.28-93.867zM774.827 584.533c0-51.841-43.554-93.867-97.28-93.867s-97.28 42.026-97.28 93.867c0 51.841 43.554 93.867 97.28 93.867s97.28-42.026 97.28-93.867zM283.307 463.36c0-3.413 0-6.827 0-11.947 0-6.827 0-20.48 0-29.013 1.707-22.187 10.24-40.96 15.36-52.907 5.12-10.24 8.533-17.067 11.947-23.893-5.12 0-10.24 0-15.36 0-42.667-3.413-71.68-32.427-85.333-46.080-23.893-1.707-44.373-1.707-58.027 0-22.187 1.707-30.72 5.12-34.133 6.827-18.773 8.533-29.013 25.6-34.133 34.133 0 3.413 0 6.827 0 10.24 0 29.013 1.707 56.32 5.12 83.627 0 3.413 1.707 6.827 3.413 13.653 5.12 17.067 8.533 25.6 15.36 34.133 3.413 3.413 11.947 10.24 20.48 10.24 5.12 0 8.533-3.413 10.24-5.12 6.827-5.12 11.947-8.533 15.36-10.24 34.133-13.653 30.72-13.653 35.84-15.36 27.307-10.24 52.907-6.827 59.733-6.827 10.24 1.707 18.773 3.413 23.893 5.12l10.24 3.413zM628.053 463.36c0-3.413 0-6.827 0-11.947 0-6.827 0-20.48 0-29.013-1.707-22.187-10.24-40.96-15.36-52.907-5.12-10.24-8.533-17.067-11.947-23.893 5.12 0 10.24 0 15.36 0 42.667-3.413 71.68-32.427 85.333-46.080 23.893-1.707 44.373-1.707 58.027 0 22.187 1.707 30.72 5.12 34.133 6.827 18.773 8.533 29.013 25.6 34.133 34.133 0 3.413 0 6.827 0 10.24 0 29.013-1.707 56.32-5.12 83.627 0 3.413-1.707 6.827-3.413 13.653-5.12 17.067-8.533 25.6-15.36 34.133-3.413 3.413-11.947 10.24-20.48 10.24-5.12 0-8.533-3.413-10.24-5.12-3.413-1.707-8.533-3.413-11.947-5.12-34.133-13.653-30.72-13.653-35.84-15.36-27.307-10.24-52.907-6.827-59.733-6.827-10.24 1.707-18.773 3.413-23.893 5.12l-13.653-1.707zM814.080 895.147h25.6v-230.4h-25.6v230.4zM708.267 791.040h230.4v-25.6h-230.4v25.6z" />
<glyph unicode="&#xe90a;" glyph-name="map-pin_outline_add" d="M643.413 601.6c-13.653 32.427-32.427 51.2-44.373 61.44-35.84 35.84-75.093 51.2-83.627 54.613-10.24 5.12-46.080 15.36-92.16 13.653-47.787-1.707-87.040-18.773-109.227-32.427-18.773-10.24-78.507-46.080-104.107-116.053-15.36-47.787-6.827-87.040 1.707-129.707 13.653-63.147 39.253-107.52 81.92-179.2 34.133-56.32 80.213-128 138.24-208.213l95.573 133.12c20.48 32.427 35.84 59.733 47.787 81.92 18.773 32.427 32.427 59.733 35.84 69.973 18.773 39.253 29.013 59.733 35.84 83.627s13.653 49.493 13.653 85.333c0 13.653-1.707 46.080-17.067 81.92zM616.107 441.173c-5.12-22.187-13.653-39.253-30.72-71.68-5.12-8.533-13.653-30.72-30.72-59.733-10.24-20.48-23.893-42.667-40.96-69.973l-83.627-114.347c-49.493 69.973-88.747 131.413-117.76 179.2-37.547 61.44-58.027 98.987-69.973 153.6-6.827 37.547-13.653 69.973-1.707 110.933 22.187 59.733 73.387 90.453 88.747 98.987 20.48 11.947 52.907 25.6 93.867 27.307 39.253 1.707 69.973-8.533 78.507-13.653 6.827-3.413 40.96-15.36 71.68-47.787 10.24-10.24 25.6-25.6 39.253-52.907 13.653-30.72 13.653-58.027 13.653-71.68 1.707-27.307-5.12-49.493-10.24-68.267zM431.787 613.547c-64.853 0-116.053-51.2-116.053-116.053s51.2-116.053 116.053-116.053 116.053 51.2 116.053 116.053-51.2 116.053-116.053 116.053zM430.080 412.16c-46.080 0-85.333 37.547-85.333 85.333s37.547 85.333 85.333 85.333 85.333-37.547 85.333-85.333-37.547-85.333-85.333-85.333zM744.107 878.080h25.6v-230.4h-25.6v230.4zM638.293 773.973h230.4v-25.6h-230.4v25.6z" />
<glyph unicode="&#xe90b;" glyph-name="add_machines" d="M141.653 468.48l-54.613 73.387 66.56 66.56 69.973-61.44zM249.173 645.973l-11.947-83.627h112.64l-8.533 83.627zM375.467 557.227l59.733 46.080 61.44-59.733-46.080-68.267zM462.507 456.533l78.507-13.653v-87.040l-78.507-13.653zM452.267 321.707l44.373-63.147-59.733-61.44-69.973 52.907zM237.227 232.96l17.067-80.213h83.627l11.947 80.213zM213.333 243.2l-58.027-49.493-63.147 64.853 47.787 63.147zM126.293 342.187l-76.8 11.947v87.040l76.8 15.36zM296.96 582.827c-102.4 0-184.32-81.92-184.32-184.32s81.92-184.32 184.32-184.32 184.32 81.92 184.32 184.32-83.627 184.32-184.32 184.32zM296.96 296.107c-56.32 0-104.107 46.080-104.107 104.107 0 56.32 46.080 104.107 104.107 104.107 56.32 0 104.107-46.080 104.107-104.107-1.707-58.027-47.787-104.107-104.107-104.107zM541.013 657.92l-32.427 40.96 39.253 39.253 39.253-35.84zM602.453 758.613l-6.827-46.080h64.853l-5.12 46.080zM675.84 709.12l34.133 25.6 35.84-34.133-27.307-39.253zM725.333 651.093l46.080-8.533v-49.493l-46.080-8.533zM720.213 572.587l25.6-35.84-35.84-35.84-39.253 30.72zM595.627 521.387l10.24-46.080h47.787l6.827 46.080zM581.973 526.507l-34.133-27.307-35.84 37.547 27.307 35.84zM532.48 584.533l-44.373 6.827v49.493l44.373 10.24zM629.76 722.773c-58.027 0-105.813-47.787-105.813-105.813s47.787-105.813 105.813-105.813 105.813 47.787 105.813 105.813-47.787 105.813-105.813 105.813zM629.76 557.227c-32.427 0-59.733 27.307-59.733 59.733s27.307 59.733 59.733 59.733 59.733-27.307 59.733-59.733-27.307-59.733-59.733-59.733zM542.72 232.96l-32.427 42.667 37.547 37.547 40.96-34.133zM604.16 335.36l-6.827-47.787h64.853l-5.12 47.787zM677.547 284.16l34.133 27.307 35.84-35.84-27.307-39.253zM727.040 226.133l46.080-8.533v-49.493l-46.080-6.827zM721.92 147.627l25.6-35.84-35.84-35.84-39.253 30.72zM597.333 96.427l10.24-46.080h47.787l6.827 46.080zM583.68 103.253l-34.133-29.013-35.84 37.547 27.307 35.84zM534.187 161.28l-46.080 6.827v49.493l46.080 8.533zM631.467 299.52c-58.027 0-105.813-47.787-105.813-105.813s47.787-105.813 105.813-105.813 105.813 47.787 105.813 105.813-47.787 105.813-105.813 105.813zM631.467 133.973c-32.427 0-59.733 27.307-59.733 59.733s27.307 59.733 59.733 59.733 59.733-27.307 59.733-59.733c0-34.133-27.307-59.733-59.733-59.733zM846.507 912.213h25.6v-230.4h-25.6v230.4zM740.693 808.107h230.4v-25.6h-230.4v25.6z" />
<glyph unicode="&#xe90c;" glyph-name="group" d="M377.173 415.573c-1.707 0-3.413 0-6.827 0-34.133-1.707-58.027-18.773-63.147-22.187-8.533-6.827-23.893-18.773-37.547-47.787-29.013-58.027-27.307-124.587-23.893-155.307 0-3.413 0-8.533 1.707-13.653 8.533-37.547 44.373-56.32 46.080-58.027 17.067-8.533 32.427-10.24 42.667-10.24h349.867c5.12 0 10.24 0 15.36 0 37.547 3.413 61.44 34.133 68.267 44.373 1.707 3.413 3.413 6.827 5.12 13.653 5.12 11.947 6.827 27.307 6.827 59.733 0 18.773-1.707 34.133-5.12 56.32-6.827 32.427-11.947 58.027-30.72 83.627-8.533 11.947-27.307 35.84-61.44 46.080-15.36 5.12-29.013 5.12-37.547 5.12-1.707-1.707-5.12-3.413-8.533-5.12-18.773-11.947-32.427-20.48-35.84-22.187-23.893-15.36-54.613-20.48-58.027-22.187-32.427-5.12-59.733 0-69.973 1.707-25.6 5.12-44.373 15.36-56.32 22.187-13.653 6.827-23.893 15.36-32.427 20.48l-8.533 3.413zM658.773 535.040c0-79.176-66.477-143.36-148.48-143.36s-148.48 64.184-148.48 143.36c0 79.176 66.477 143.36 148.48 143.36s148.48-64.184 148.48-143.36zM385.707 678.4c0-51.841-43.554-93.867-97.28-93.867s-97.28 42.026-97.28 93.867c0 51.841 43.554 93.867 97.28 93.867s97.28-42.026 97.28-93.867zM831.147 678.4c0-51.841-43.554-93.867-97.28-93.867s-97.28 42.026-97.28 93.867c0 51.841 43.554 93.867 97.28 93.867s97.28-42.026 97.28-93.867zM339.627 557.227c0-3.413 0-6.827 0-11.947 0-6.827 0-20.48 0-29.013 1.707-22.187 10.24-40.96 15.36-52.907 5.12-10.24 8.533-17.067 11.947-23.893-5.12 0-10.24 0-15.36 0-42.667-3.413-71.68-32.427-85.333-46.080-23.893-1.707-44.373-1.707-58.027 0-22.187 1.707-30.72 5.12-34.133 6.827-18.773 8.533-29.013 25.6-34.133 34.133 0 3.413 0 6.827 0 10.24 0 29.013 1.707 56.32 5.12 83.627 0 3.413 1.707 6.827 3.413 13.653 5.12 17.067 8.533 25.6 15.36 34.133 3.413 3.413 11.947 10.24 20.48 10.24 5.12 0 8.533-3.413 10.24-5.12 6.827-5.12 11.947-8.533 15.36-10.24 34.133-13.653 30.72-13.653 35.84-15.36 27.307-10.24 52.907-6.827 59.733-6.827 10.24 1.707 18.773 3.413 23.893 5.12l10.24 3.413zM684.373 557.227c0-3.413 0-6.827 0-11.947 0-6.827 0-20.48 0-29.013-1.707-22.187-10.24-40.96-15.36-52.907-5.12-10.24-8.533-17.067-11.947-23.893 5.12 0 10.24 0 15.36 0 42.667-3.413 71.68-32.427 85.333-46.080 23.893-1.707 44.373-1.707 58.027 0 22.187 1.707 30.72 5.12 34.133 6.827 18.773 8.533 29.013 25.6 34.133 34.133 0 3.413 0 6.827 0 10.24 0 29.013-1.707 56.32-5.12 83.627 0 3.413-1.707 6.827-3.413 13.653-5.12 17.067-8.533 25.6-15.36 34.133-3.413 3.413-11.947 10.24-20.48 10.24-5.12 0-8.533-3.413-10.24-5.12-3.413-1.707-8.533-3.413-11.947-5.12-34.133-13.653-30.72-13.653-35.84-15.36-27.307-10.24-52.907-6.827-59.733-6.827-10.24 1.707-18.773 3.413-23.893 5.12l-13.653-1.707z" />
<glyph unicode="&#xe90d;" glyph-name="machines" d="M245.76 511.147l-56.32 73.387 66.56 66.56 69.973-61.44zM351.573 688.64l-10.24-83.627h110.933l-8.533 83.627zM477.867 599.893l59.733 46.080 61.44-59.733-46.080-68.267zM564.907 499.2l78.507-13.653v-87.040l-78.507-11.947zM556.373 364.373l42.667-63.147-59.733-61.44-69.973 54.613zM341.333 275.627l15.36-80.213h83.627l11.947 80.213zM317.44 285.867l-59.733-49.493-63.147 64.853 47.787 63.147zM228.693 386.56l-76.8 11.947v85.333l76.8 15.36zM399.36 625.493c-102.4 0-184.32-81.92-184.32-184.32s81.92-184.32 184.32-184.32 184.32 81.92 184.32 184.32-83.627 184.32-184.32 184.32zM399.36 338.773c-56.32 0-104.107 46.080-104.107 104.107 0 56.32 46.080 104.107 104.107 104.107 56.32 0 104.107-46.080 104.107-104.107-1.707-58.027-47.787-104.107-104.107-104.107zM643.413 700.587l-30.72 40.96 37.547 39.253 40.96-35.84zM704.853 802.987l-6.827-47.787h64.853l-3.413 47.787zM778.24 751.787l34.133 27.307 35.84-35.84-27.307-39.253zM827.733 693.76l46.080-8.533v-49.493l-46.080-8.533zM822.613 615.253l25.6-35.84-35.84-35.84-39.253 30.72zM698.027 564.053l10.24-46.080h47.787l6.827 46.080zM684.373 569.173l-32.427-27.307-37.547 37.547 27.307 35.84zM634.88 627.2l-44.373 6.827v49.493l44.373 10.24zM732.16 767.147c-58.027 0-105.813-47.787-105.813-105.813s47.787-105.813 105.813-105.813c58.027 0 105.813 47.787 105.813 105.813s-46.080 105.813-105.813 105.813zM732.16 599.893c-32.427 0-59.733 27.307-59.733 59.733s27.307 59.733 59.733 59.733c32.427 0 59.733-27.307 59.733-59.733s-25.6-59.733-59.733-59.733zM645.12 275.627l-32.427 42.667 39.253 37.547 39.253-34.133zM706.56 378.027l-6.827-47.787h64.853l-5.12 47.787zM779.947 326.827l34.133 27.307 35.84-35.84-27.307-39.253zM829.44 268.8l46.080-6.827v-51.2l-46.080-6.827zM824.32 190.293l25.6-35.84-35.84-35.84-39.253 32.427zM699.733 140.8l10.24-47.787h47.787l6.827 47.787zM686.080 145.92l-34.133-29.013-35.84 37.547 27.307 35.84zM636.587 203.947l-44.373 6.827v49.493l44.373 8.533zM733.867 342.187c-58.027 0-105.813-47.787-105.813-105.813s47.787-105.813 105.813-105.813c58.027 0 105.813 47.787 105.813 105.813s-47.787 105.813-105.813 105.813zM733.867 176.64c-32.427 0-59.733 27.307-59.733 59.733s27.307 59.733 59.733 59.733c32.427 0 59.733-27.307 59.733-59.733 0-34.133-27.307-59.733-59.733-59.733z" />
<glyph unicode="&#xe90e;" glyph-name="map-pin_outline" d="M762.88 686.933c-17.067 37.547-39.253 59.733-52.907 73.387-42.667 42.667-88.747 61.44-98.987 64.853-11.947 5.12-54.613 18.773-109.227 17.067-56.32-1.707-102.4-22.187-129.707-37.547-22.187-11.947-93.867-54.613-122.88-138.24-18.773-56.32-8.533-102.4 1.707-153.6 17.067-75.093 46.080-128 97.28-213.333 40.96-66.56 95.573-151.893 163.84-247.467l112.64 157.013c23.893 37.547 42.667 69.973 56.32 97.28 22.187 39.253 37.547 69.973 42.667 81.92 22.187 46.080 34.133 69.973 42.667 98.987 8.533 27.307 17.067 58.027 17.067 100.693 0 18.773-1.707 56.32-20.48 98.987zM730.453 495.787c-6.827-25.6-17.067-46.080-35.84-85.333-5.12-10.24-17.067-35.84-35.84-69.973-11.947-23.893-27.307-51.2-47.787-83.627l-98.987-134.827c-58.027 81.92-105.813 155.307-139.947 211.627-44.373 73.387-68.267 117.76-83.627 182.613-8.533 44.373-17.067 83.627-1.707 131.413 25.6 71.68 87.040 107.52 105.813 117.76 23.893 13.653 63.147 30.72 110.933 32.427 46.080 1.707 83.627-10.24 93.867-15.36 8.533-3.413 47.787-18.773 85.333-56.32 11.947-11.947 30.72-30.72 46.080-63.147 15.36-35.84 17.067-68.267 17.067-85.333-1.707-32.427-8.533-59.733-15.36-81.92zM512 700.587c-76.8 0-138.24-61.44-138.24-138.24s61.44-138.24 138.24-138.24 138.24 61.44 138.24 138.24-61.44 138.24-138.24 138.24zM510.293 461.653c-54.613 0-100.693 44.373-100.693 100.693s44.373 100.693 100.693 100.693 100.693-44.373 100.693-100.693-44.373-100.693-100.693-100.693z" />
<glyph unicode="&#xe90f;" d="M764.587 21.333v482.987c0 11.947-1.707 22.187-3.413 29.013-1.707 8.533-5.12 17.067-10.24 25.6-1.707 5.12-5.12 8.533-6.827 13.653l-136.533 136.533c-11.947 13.653-35.84 32.427-68.267 34.133-3.413 0-6.827 0-10.24 0h-375.467l-10.24-1.707c-8.533-3.413-13.653-8.533-17.067-11.947s-13.653-13.653-15.36-27.307c0-3.413 0-6.827 0-8.533v-674.133c0-3.413 0-10.24 3.413-17.067 1.707-3.413 6.827-11.947 17.067-17.067 6.827-3.413 13.653-3.413 20.48-5.12 5.12 0 10.24 0 11.947 0h561.493c5.12 0 11.947 1.707 20.48 6.827 3.413 1.707 15.36 10.24 17.067 23.893 3.413 3.413 3.413 8.533 1.707 10.24zM547.84 680.107h11.947l143.36-143.36v-10.24h-157.013v153.6zM709.973 34.987h-542.72v650.24h325.973v-179.2l1.707-8.533c1.707-5.12 10.24-22.187 29.013-29.013 3.413-1.707 6.827-1.707 10.24-1.707h177.493v-431.787z" />
<glyph unicode="&#xe910;" d="M690.333 723.428l27.756 27.756 103.783-103.783-27.756-27.756-103.783 103.783z" />
<glyph unicode="&#xe911;" d="M768.659 645.823l183.431 183.431 27.756-27.756-183.431-183.431-27.756 27.756z" />
<glyph unicode="&#xe912;" d="M605.867 355.84h-324.267c-10.24 0-17.067 6.827-17.067 17.067v20.48c0 10.24 6.827 17.067 17.067 17.067h324.267c10.24 0 17.067-6.827 17.067-17.067v-20.48c0-10.24-6.827-17.067-17.067-17.067z" />
<glyph unicode="&#xe913;" d="M605.867 253.44h-324.267c-10.24 0-17.067 6.827-17.067 17.067v20.48c0 10.24 6.827 17.067 17.067 17.067h324.267c10.24 0 17.067-6.827 17.067-17.067v-20.48c0-10.24-6.827-17.067-17.067-17.067z" />
<glyph unicode="&#xe914;" d="M605.867 151.040h-324.267c-10.24 0-17.067 6.827-17.067 17.067v20.48c0 10.24 6.827 17.067 17.067 17.067h324.267c10.24 0 17.067-6.827 17.067-17.067v-20.48c0-10.24-6.827-17.067-17.067-17.067z" />
<glyph unicode="&#xe915;" d="M764.587 21.333v482.987c0 11.947-1.707 22.187-3.413 29.013-1.707 8.533-5.12 17.067-10.24 25.6-1.707 5.12-5.12 8.533-6.827 13.653l-136.533 136.533c-11.947 13.653-35.84 32.427-68.267 34.133-3.413 0-6.827 0-10.24 0h-375.467l-10.24-1.707c-8.533-3.413-13.653-8.533-17.067-11.947s-13.653-13.653-15.36-27.307c0-3.413 0-6.827 0-8.533v-674.133c0-3.413 0-10.24 3.413-17.067 1.707-3.413 6.827-11.947 17.067-17.067 6.827-3.413 13.653-3.413 20.48-5.12 5.12 0 10.24 0 11.947 0h561.493c5.12 0 11.947 1.707 20.48 6.827 3.413 1.707 15.36 10.24 17.067 23.893 3.413 3.413 3.413 8.533 1.707 10.24zM547.84 680.107h11.947l143.36-143.36v-10.24h-157.013v153.6h1.707zM709.973 34.987h-542.72v650.24h325.973v-179.2l1.707-8.533c1.707-5.12 10.24-22.187 29.013-29.013 3.413-1.707 6.827-1.707 10.24-1.707h177.493v-431.787h-1.707z" />
<glyph unicode="&#xe916;" d="M902.177 711.69l-27.756-27.756-183.431 183.431 27.756 27.756 183.431-183.431z" />
<glyph unicode="&#xe917;" d="M903.356 870.942l-183.431-183.431-27.756 27.756 183.431 183.431 27.756-27.756z" />
<glyph unicode="&#xe918;" d="M597.333 362.667h-324.267c-10.24 0-17.067 6.827-17.067 17.067v20.48c0 10.24 6.827 17.067 17.067 17.067h324.267c10.24 0 17.067-6.827 17.067-17.067v-20.48c0-10.24-6.827-17.067-17.067-17.067z" />
<glyph unicode="&#xe919;" d="M597.333 260.267h-324.267c-10.24 0-17.067 6.827-17.067 17.067v20.48c0 10.24 6.827 17.067 17.067 17.067h324.267c10.24 0 17.067-6.827 17.067-17.067v-20.48c0-10.24-6.827-17.067-17.067-17.067z" />
<glyph unicode="&#xe91a;" d="M597.333 157.867h-324.267c-10.24 0-17.067 6.827-17.067 17.067v20.48c0 10.24 6.827 17.067 17.067 17.067h324.267c10.24 0 17.067-6.827 17.067-17.067v-20.48c0-10.24-6.827-17.067-17.067-17.067z" />
<glyph unicode="&#xe91b;" d="M764.587 21.333v482.987c0 11.947-1.707 22.187-3.413 29.013-1.707 8.533-5.12 17.067-10.24 25.6-1.707 5.12-5.12 8.533-6.827 13.653l-136.533 136.533c-11.947 13.653-35.84 32.427-68.267 34.133-3.413 0-6.827 0-10.24 0h-375.467l-10.24-1.707c-8.533-3.413-13.653-8.533-17.067-11.947s-13.653-13.653-15.36-27.307c0-3.413 0-6.827 0-8.533v-674.133c0-3.413 0-10.24 3.413-17.067 1.707-3.413 6.827-11.947 17.067-17.067 6.827-3.413 13.653-3.413 20.48-5.12 5.12 0 10.24 0 11.947 0h561.493c5.12 0 11.947 1.707 20.48 6.827 3.413 1.707 15.36 10.24 17.067 23.893 3.413 3.413 3.413 8.533 1.707 10.24zM547.84 680.107h11.947l143.36-143.36v-10.24h-157.013v153.6zM709.973 34.987h-542.72v650.24h325.973v-179.2l1.707-8.533c1.707-5.12 10.24-22.187 29.013-29.013 3.413-1.707 6.827-1.707 10.24-1.707h177.493v-431.787z" />
<glyph unicode="&#xe91c;" d="M690.333 723.428l27.756 27.756 103.783-103.783-27.756-27.756-103.783 103.783z" />
<glyph unicode="&#xe91d;" d="M768.659 645.823l183.431 183.431 27.756-27.756-183.431-183.431-27.756 27.756z" />
<glyph unicode="&#xe91e;" d="M764.587 21.333v482.987c0 11.947-1.707 22.187-3.413 29.013-1.707 8.533-5.12 17.067-10.24 25.6-1.707 5.12-5.12 8.533-6.827 13.653l-136.533 136.533c-11.947 13.653-35.84 32.427-68.267 34.133-3.413 0-6.827 0-10.24 0h-375.467l-10.24-1.707c-8.533-3.413-13.653-8.533-17.067-11.947s-13.653-13.653-15.36-27.307c0-3.413 0-6.827 0-8.533v-674.133c0-3.413 0-10.24 3.413-17.067 1.707-3.413 6.827-11.947 17.067-17.067 6.827-3.413 13.653-3.413 20.48-5.12 5.12 0 10.24 0 11.947 0h561.493c5.12 0 11.947 1.707 20.48 6.827 3.413 1.707 15.36 10.24 17.067 23.893 3.413 3.413 3.413 8.533 1.707 10.24zM547.84 680.107h11.947l143.36-143.36v-10.24h-157.013v153.6zM709.973 34.987h-542.72v650.24h325.973v-179.2l1.707-8.533c1.707-5.12 10.24-22.187 29.013-29.013 3.413-1.707 6.827-1.707 10.24-1.707h177.493v-431.787z" />
<glyph unicode="&#xe91f;" d="M690.814 867.18l27.756 27.756 183.431-183.431-27.756-27.756-183.431 183.431z" />
<glyph unicode="&#xe920;" d="M691.688 715.359l183.431 183.431 27.756-27.756-183.431-183.431-27.756 27.756z" />
<glyph unicode="&#xe921;" horiz-adv-x="1365" d="M13.653 502.613c1.707 11.947 5.12 27.307 10.24 44.373 20.48 64.853 54.613 112.64 80.213 141.653 23.893 27.307 73.387 76.8 151.893 109.227 61.44 23.893 112.64 27.307 128 29.013 100.693 5.12 175.787-34.133 204.8-49.493 39.253-20.48 68.267-44.373 85.333-61.44l68.267 68.267c3.413 3.413 10.24 6.827 17.067 8.533 13.653 1.707 29.013-8.533 35.84-23.893v-235.52c0-1.707 0-5.12 0-10.24-1.707-10.24-10.24-17.067-11.947-18.773-6.827-5.12-15.36-6.827-18.773-6.827h-216.747c-3.413 0-8.533-1.707-15.36 0-3.413 0-22.187 3.413-29.013 20.48-3.413 10.24-1.707 18.773 0 22.187l78.507 81.92c-1.707 1.707-3.413 5.12-6.827 8.533-5.12 5.12-25.6 27.307-73.387 46.080-11.947 5.12-29.013 11.947-51.2 17.067-63.147 13.653-116.053-1.707-129.707-6.827-63.147-20.48-100.693-59.733-117.76-80.213-35.84-42.667-49.493-85.333-54.613-107.52l-134.827-1.707v5.12z" />
<glyph unicode="&#xe922;" horiz-adv-x="1365" d="M798.72 366.080c-1.707-11.947-5.12-27.307-10.24-44.373-20.48-64.853-54.613-112.64-80.213-141.653-23.893-27.307-73.387-76.8-151.893-109.227-61.44-23.893-112.64-27.307-128-29.013-100.693-5.12-175.787 34.133-204.8 49.493-39.253 20.48-68.267 44.373-85.333 61.44l-68.267-68.267c-3.413-3.413-10.24-6.827-17.067-8.533-13.653-1.707-29.013 8.533-35.84 23.893v235.52c0 1.707 0 5.12 0 10.24 1.707 10.24 10.24 17.067 11.947 18.773 6.827 5.12 15.36 6.827 18.773 6.827h220.16c3.413 0 8.533 1.707 15.36 0 3.413 0 22.187-3.413 29.013-20.48 3.413-10.24 1.707-18.773 0-22.187l-78.507-81.92c1.707-1.707 3.413-5.12 6.827-8.533 5.12-5.12 25.6-27.307 73.387-46.080 11.947-5.12 29.013-11.947 51.2-17.067 63.147-13.653 116.053 1.707 129.707 6.827 63.147 20.48 100.693 59.733 117.76 80.213 35.84 42.667 49.493 85.333 54.613 107.52l134.827 1.707v-5.12z" />
<glyph unicode="&#xe923;" horiz-adv-x="1365" d="M1234.406 210.879l48.209 45.893 22.358-23.487-48.209-45.893-22.358 23.487z" />
<glyph unicode="&#xe924;" horiz-adv-x="1365" d="M1129.813 529.92c-49.493 49.493-141.653 32.427-204.8-32.427-63.147-66.56-69.973-158.72-25.6-204.8 49.493-46.080 141.653-32.427 204.8 32.427 64.853 63.147 78.507 158.72 25.6 204.8zM1107.627 430.933c0-6.827-6.827-17.067-17.067-29.013s-20.48-10.24-29.013-10.24c-6.827 0-13.653-3.413-25.6 0-3.413 0-10.24 6.827-10.24 3.413v0 0c3.413-3.413 3.413-10.24 6.827-20.48 0-10.24-3.413-20.48-3.413-25.6-10.24-20.48-29.013-29.013-32.427-29.013-13.653-6.827-29.013-3.413-32.427-3.413s-29.013 6.827-35.84 29.013c-6.827 13.653-6.827 29.013-3.413 32.427 0 6.827 6.827 29.013 25.6 39.253 0 0 20.48 10.24 46.080 6.827 3.413 0 6.827-3.413 10.24-3.413l-3.413 13.653v10.24c0 6.827 0 17.067 10.24 29.013 3.413 6.827 10.24 10.24 17.067 17.067 10.24 6.827 13.653 6.827 20.48 6.827s17.067 3.413 29.013-3.413c10.24-3.413 13.653-10.24 17.067-13.653 3.413-6.827 10.24-13.653 13.653-29.013 1.707-6.827-3.413-17.067-3.413-20.48z" />
<glyph unicode="&#xe925;" horiz-adv-x="1365" d="M1307.307 111.787v0c-10.24-10.24-29.013-10.24-39.253-3.413l-201.387 213.333c-10.24 10.24-10.24 29.013 0 35.84l3.413 3.413c10.24 10.24 29.013 10.24 35.84 0l201.387-211.627c13.653-11.947 13.653-29.013 0-37.547z" />
<glyph unicode="&#xe926;" horiz-adv-x="1365" d="M1344.853 203.947v0c-10.24-10.24-25.6-10.24-32.427-3.413l-66.56 68.267c-10.24 10.24-6.827 20.48 0 29.013l3.413 3.413c10.24 10.24 20.48 6.827 29.013 0l66.56-66.56c8.533-8.533 8.533-23.893 0-30.72z" />
<glyph unicode="&#xe92f;" glyph-name="customer_role_access" d="M640 722.773c-5.12 22.187-6.827 34.133-15.36 49.493-3.413 5.12-15.36 23.893-42.667 34.133-10.24 5.12-18.773 5.12-25.6 5.12-5.12 5.12-13.653 11.947-23.893 17.067-3.413 1.707-15.36 8.533-32.427 11.947-20.48 5.12-34.133 0-54.613-3.413-13.653-3.413-34.133-5.12-54.613-15.36-13.653-5.12-42.667-22.187-59.733-54.613-8.533-18.773-8.533-44.373-6.827-97.28 0-15.36 1.707-29.013 1.707-37.547l6.827-44.373c0 0-10.24-13.653-13.653-20.48-6.827-18.773 5.12-46.080 22.187-59.733 5.12-5.12 13.653-6.827 15.36-8.533 3.413-37.547 13.653-56.32 22.187-64.853 3.413-3.413 8.533-8.533 11.947-18.773 3.413-11.947 1.707-20.48 0-30.72-10.24-56.32-10.24-61.44-17.067-71.68-3.413-5.12-10.24-11.947-22.187-15.36l-71.68-32.427-34.133-13.653c-17.067-5.12-39.253-15.36-59.733-34.133-11.947-11.947-40.96-35.84-44.373-76.8 0-6.827 0-13.653 0-18.773 141.653 0 281.6 0 423.253 0l-1.707 8.533c-1.707 5.12-1.707 8.533-3.413 15.36-1.707 13.653-3.413 25.6-1.707 40.96 1.707 27.307 3.413 59.733 18.773 97.28 5.12 13.653 11.947 22.187 13.653 29.013l-15.36 13.653-6.827 13.653-5.12 66.56c10.24 11.947 20.48 23.893 29.013 42.667 3.413 5.12 5.12 11.947 6.827 17.067l5.12 32.427c5.12 3.413 11.947 8.533 15.36 13.653 13.653 15.36 23.893 42.667 13.653 64.853-3.413 5.12-6.827 11.947-8.533 13.653 6.827 17.067 15.36 42.667 17.067 73.387 3.413 27.307 0 46.080-1.707 58.027zM616.107 628.907c-5.12-15.36-10.24-29.013-13.653-39.253 1.707-1.707 5.12-5.12 6.827-8.533 1.707-1.707 5.12-6.827 6.827-13.653 3.413-11.947 0-22.187-1.707-23.893-5.12-18.773-23.893-27.307-27.307-30.72 0-5.12-1.707-8.533-1.707-13.653-5.12-29.013-15.36-49.493-23.893-61.44-3.413-6.827-8.533-15.36-15.36-25.6v-13.653l1.707-58.027c0-3.413 1.707-6.827 1.707-11.947 3.413-10.24 8.533-17.067 13.653-20.48-1.707-5.12-5.12-6.827-5.12-11.947-23.893-52.907-25.6-109.227-18.773-155.307l-378.88-3.413c0 0 1.707 20.48 11.947 35.84 11.947 18.773 27.307 32.427 29.013 32.427 11.947 8.533 17.067 10.24 52.907 27.307 32.427 13.653 27.307 13.653 42.667 20.48 18.773 6.827 29.013 10.24 59.733 22.187 15.36 5.12 23.893 10.24 32.427 20.48 6.827 8.533 10.24 17.067 11.947 23.893l13.653 80.213c0 1.707 0 5.12 0 8.533 0 5.12-1.707 13.653-10.24 23.893-5.12 8.533-6.827 8.533-11.947 13.653-11.947 15.36-13.653 35.84-15.36 51.2-1.707 10.24-1.707 17.067-1.707 22.187-5.12 0-11.947 1.707-18.773 5.12-13.653 8.533-18.773 25.6-15.36 42.667 3.413 10.24 10.24 15.36 13.653 17.067-3.413 8.533-5.12 20.48-6.827 32.427-1.707 13.653-1.707 18.773-3.413 47.787-1.707 44.373-3.413 49.493-1.707 61.44 1.707 13.653 3.413 23.893 10.24 35.84 13.653 25.6 37.547 35.84 46.080 40.96 10.24 5.12 20.48 6.827 35.84 10.24 18.773 5.12 29.013 5.12 35.84 5.12 3.413 0 10.24 0 18.773-1.707 8.533 0 17.067 0 25.6-3.413 5.12-3.413 17.067-6.827 27.307-20.48 3.413 0 6.827-1.707 11.947-1.707 11.947-1.707 17.067-3.413 22.187-5.12 10.24-5.12 15.36-11.947 20.48-17.067 1.707-3.413 10.24-13.653 15.36-35.84 5.12-20.48 6.827-37.547 6.827-46.080 5.12-10.24 5.12-32.427-3.413-58.027zM730.453 391.68c-107.52 0-194.56-85.333-194.56-191.147s87.040-191.147 194.56-191.147 194.56 85.333 194.56 191.147c1.707 104.107-85.333 191.147-194.56 191.147zM730.453 31.573c-93.867 0-170.667 75.093-170.667 167.253s76.8 167.253 170.667 167.253 170.667-75.093 170.667-167.253c1.707-92.16-75.093-167.253-170.667-167.253zM823.204 162.124l-23.487-22.358-10.591 11.125 23.487 22.358 10.591-11.125zM738.987 304.64c-23.893 23.893-68.267 15.36-98.987-15.36-30.72-32.427-34.133-76.8-11.947-98.987 23.893-22.187 68.267-15.36 98.987 15.36s37.547 76.8 11.947 98.987zM728.747 256.853c0-3.413-3.413-8.533-8.533-13.653s-10.24-5.12-13.653-5.12-6.827-1.707-11.947 0c-1.707 0-5.12 3.413-5.12 1.707v0 0c1.707-1.707 1.707-5.12 3.413-10.24 0-5.12-1.707-10.24-1.707-11.947-5.12-10.24-13.653-13.653-15.36-13.653-6.827-3.413-13.653-1.707-15.36-1.707s-13.653 3.413-17.067 13.653c-3.413 6.827-3.413 13.653-1.707 15.36 0 3.413 3.413 13.653 11.947 18.773 0 0 10.24 5.12 22.187 3.413 1.707 0 3.413-1.707 5.12-1.707l-1.707 6.827v5.12c0 3.413 0 8.533 5.12 13.653 1.707 3.413 5.12 5.12 8.533 8.533 5.12 3.413 6.827 3.413 10.24 3.413s8.533 1.707 13.653-1.707c5.12-1.707 6.827-5.12 8.533-6.827 1.707-3.413 5.12-6.827 6.827-13.653-1.707-3.413-3.413-8.533-3.413-10.24zM824.32 103.253v0c-5.12-5.12-13.653-5.12-18.773-1.707l-97.28 102.4c-5.12 5.12-5.12 13.653 0 17.067l1.707 1.707c5.12 5.12 13.653 5.12 17.067 0l97.28-102.4c6.827-5.12 6.827-13.653 0-17.067zM843.093 147.627v0c-5.12-5.12-11.947-5.12-15.36-1.707l-32.427 32.427c-5.12 5.12-3.413 10.24 0 13.653l1.707 1.707c5.12 5.12 10.24 3.413 13.653 0l32.427-32.427c3.413-3.413 3.413-10.24 0-13.653z" />
<glyph unicode="&#xe930;" glyph-name="customer_tick_role" d="M643.413 748.373c-5.12 22.187-6.827 35.84-15.36 49.493-3.413 5.12-15.36 25.6-42.667 35.84-10.24 5.12-18.773 5.12-25.6 5.12-5.12 5.12-13.653 11.947-23.893 17.067-3.413 1.707-15.36 8.533-34.133 11.947-20.48 5.12-35.84 0-56.32-3.413-13.653-3.413-34.133-5.12-54.613-15.36-13.653-6.827-44.373-22.187-59.733-56.32-8.533-18.773-8.533-46.080-6.827-98.987 0-15.36 1.707-29.013 1.707-37.547l6.827-46.080c0 0-10.24-13.653-13.653-20.48-6.827-18.773 5.12-46.080 22.187-59.733 5.12-5.12 13.653-6.827 15.36-8.533 3.413-37.547 13.653-56.32 22.187-66.56 3.413-3.413 8.533-8.533 11.947-18.773 3.413-11.947 1.707-20.48 0-30.72-10.24-56.32-10.24-63.147-17.067-73.387-3.413-5.12-10.24-11.947-22.187-15.36l-73.387-32.427-35.84-15.36c-17.067-5.12-39.253-15.36-59.733-35.84-11.947-11.947-40.96-35.84-46.080-76.8 0-6.827 0-13.653 0-18.773 143.36 0 285.013 0 428.373 0l-1.707 8.533c-1.707 5.12-1.707 8.533-3.413 15.36-1.707 15.36-3.413 25.6-1.707 40.96 1.707 27.307 3.413 59.733 18.773 98.987 5.12 13.653 11.947 22.187 15.36 29.013l-15.36 13.653-6.827 15.36-5.12 66.56c10.24 11.947 20.48 25.6 29.013 44.373 3.413 5.12 5.12 11.947 6.827 17.067l5.12 32.427c5.12 3.413 11.947 8.533 15.36 15.36 13.653 15.36 23.893 44.373 13.653 66.56-3.413 5.12-6.827 11.947-8.533 13.653 6.827 17.067 15.36 42.667 17.067 75.093 6.827 25.6 1.707 46.080 0 58.027zM621.227 652.8c-5.12-15.36-10.24-29.013-15.36-39.253 1.707-1.707 5.12-5.12 6.827-8.533 1.707-1.707 5.12-6.827 6.827-13.653 3.413-11.947 0-22.187-1.707-25.6-5.12-18.773-25.6-27.307-27.307-30.72 0-5.12-1.707-8.533-1.707-13.653-5.12-29.013-15.36-49.493-23.893-63.147-3.413-6.827-8.533-15.36-15.36-25.6v-15.36l1.707-58.027c0-3.413 1.707-6.827 1.707-11.947 3.413-10.24 8.533-17.067 13.653-20.48-1.707-5.12-5.12-6.827-5.12-11.947-25.6-54.613-25.6-109.227-18.773-157.013l-384-3.413c0 0 1.707 20.48 11.947 35.84 11.947 18.773 27.307 32.427 29.013 34.133 11.947 8.533 17.067 10.24 54.613 27.307 34.133 15.36 27.307 15.36 42.667 20.48 18.773 6.827 29.013 10.24 59.733 22.187 15.36 5.12 25.6 10.24 34.133 20.48 6.827 8.533 10.24 17.067 11.947 23.893l15.36 81.92c0 1.707 0 5.12 0 8.533 0 5.12-1.707 13.653-10.24 25.6-5.12 8.533-6.827 8.533-11.947 15.36-11.947 15.36-15.36 35.84-15.36 51.2-1.707 8.533-1.707 15.36-1.707 20.48-5.12 0-11.947 1.707-18.773 5.12-13.653 8.533-18.773 25.6-15.36 42.667 3.413 10.24 10.24 15.36 15.36 17.067-3.413 8.533-5.12 20.48-6.827 34.133s-1.707 18.773-3.413 47.787c-1.707 46.080-3.413 49.493-1.707 63.147 1.707 15.36 3.413 25.6 10.24 35.84 13.653 25.6 37.547 35.84 46.080 40.96 10.24 5.12 20.48 6.827 35.84 10.24 17.067 5.12 27.307 5.12 35.84 5.12 3.413 0 10.24 0 18.773-1.707 8.533 0 17.067 0 25.6-3.413 5.12-3.413 17.067-6.827 27.307-20.48 3.413 0 6.827-1.707 11.947-1.707 11.947-1.707 17.067-3.413 22.187-5.12 10.24-5.12 15.36-11.947 20.48-17.067 1.707-3.413 10.24-13.653 15.36-35.84 5.12-20.48 6.827-37.547 6.827-46.080 3.413-11.947 3.413-34.133-3.413-59.733zM737.28 412.16c-109.227 0-196.267-87.040-196.267-192.853s87.040-194.56 196.267-194.56 196.267 87.040 196.267 192.853-87.040 194.56-196.267 194.56zM737.28 46.933c-95.573 0-172.373 76.8-172.373 170.667s76.8 170.667 172.373 170.667 172.373-76.8 172.373-170.667c1.707-93.867-76.8-170.667-172.373-170.667zM626.197 230.468l18.781 11.812 58.152-92.46-18.781-11.812-58.152 92.46zM686.786 135.918l-11.912 18.719 177.11 112.706 11.912-18.719-177.11-112.706z" />
</font>
</defs>
</svg>
